<svg xmlns="http://www.w3.org/2000/svg" viewBox="0 0 621 228" fill="none">
<path fill="#16261D" fill-rule="evenodd" d="M9.5 85.0 L62.0 84.7 L74.0 85.5 L87.0 88.5 L97.0 93.5 L104.0 99.5 L110.4 107.0 L114.3 116.0 L116.5 127.0 L116.5 137.0 L114.5 148.0 L109.5 159.0 L98.0 170.3 L82.0 177.4 L62.0 180.4 L42.0 180.5 L41.0 216.5 L8.5 216.0 L9.0 85.3Z M465.5 88.0 L484.5 88.0 L485.0 111.2 L509.5 112.0 L509.0 137.6 L484.5 139.0 L484.5 177.0 L485.8 183.0 L489.0 187.5 L493.0 189.5 L503.0 189.5 L507.0 187.5 L509.5 188.0 L509.5 216.0 L503.0 218.4 L489.0 219.5 L474.0 217.5 L466.0 213.5 L458.6 206.0 L455.5 200.0 L452.5 187.0 L452.5 138.0 L441.0 137.4 L439.5 136.0 L440.5 115.0 L453.0 112.5 L459.5 108.0 L463.5 100.0 L465.5 89.0Z M270.8 109.0 L288.0 108.5 L303.0 112.5 L310.0 116.5 L319.5 126.0 L324.5 135.0 L328.4 152.0 L328.4 164.0 L327.0 170.4 L261.0 170.8 L260.5 172.0 L261.6 180.0 L265.8 188.0 L271.0 192.5 L276.0 194.5 L288.0 194.5 L292.0 193.3 L297.5 188.0 L300.0 178.5 L329.0 181.5 L328.4 191.0 L324.4 201.0 L316.0 210.4 L307.0 215.5 L290.0 219.5 L274.0 219.4 L257.0 215.5 L249.0 211.5 L239.5 203.0 L232.7 192.0 L230.5 186.0 L228.5 177.0 L228.5 155.0 L232.6 139.0 L235.5 133.0 L243.7 122.0 L249.0 117.5 L260.0 111.5 L270.0 109.4Z M393.9 109.0 L408.0 108.5 L420.0 112.5 L428.5 120.0 L433.5 129.0 L437.5 148.0 L437.0 216.5 L404.5 216.0 L404.5 154.0 L400.5 142.0 L397.0 138.5 L390.0 136.6 L384.0 137.5 L379.0 140.5 L371.6 154.0 L369.5 165.0 L369.5 216.0 L336.5 216.0 L336.5 112.0 L363.9 112.0 L365.0 149.5 L369.5 131.0 L374.6 121.0 L382.0 113.5 L393.0 109.5Z M553.4 109.0 L571.0 108.5 L586.0 112.6 L594.0 117.5 L601.5 125.0 L607.5 136.0 L610.5 148.0 L610.5 169.0 L609.0 170.5 L544.0 170.8 L542.5 172.0 L544.7 181.0 L548.5 188.0 L552.0 191.5 L559.0 194.5 L571.0 194.5 L576.0 192.5 L579.5 189.0 L583.0 178.5 L612.0 181.5 L610.5 193.0 L606.5 202.0 L602.0 207.4 L594.0 213.5 L581.0 218.4 L573.0 219.4 L557.0 219.5 L545.0 217.5 L529.0 209.5 L520.5 201.0 L514.5 190.0 L511.5 179.0 L510.5 161.0 L513.6 144.0 L517.6 134.0 L524.5 124.0 L533.0 116.5 L540.0 112.5 L553.0 109.2Z M42.0 111.5 L42.0 153.5 L65.0 153.5 L73.0 151.4 L79.4 146.0 L82.5 138.0 L82.5 127.0 L81.2 123.0 L78.5 118.0 L73.0 113.5 L65.0 111.5 L43.0 111.5Z M121.5 112.0 L153.6 112.0 L154.5 178.0 L157.5 186.0 L161.0 189.5 L168.0 190.9 L173.0 190.5 L179.5 186.0 L186.5 172.0 L187.6 112.0 L221.1 112.0 L221.1 216.0 L193.5 216.0 L193.0 179.5 L191.5 180.0 L190.5 189.0 L184.4 205.0 L177.0 213.5 L170.0 217.5 L162.0 219.5 L145.0 218.5 L131.5 210.0 L125.5 200.0 L121.5 184.0 L121.0 113.0Z M276.0 134.5 L266.6 140.0 L262.5 147.0 L262.0 152.8 L297.5 152.0 L296.5 145.0 L290.0 136.6 L285.0 134.5 L277.0 134.5Z M559.0 134.5 L552.0 137.5 L547.7 142.0 L543.7 152.0 L545.0 152.8 L580.5 152.0 L578.4 143.0 L574.0 137.5 L567.0 134.5 L560.0 134.5Z"></path>
<path fill="#93C740" fill-rule="evenodd" d="M270.0 9.0 L340.0 8.5 L375.0 11.5 L410.0 16.5 L445.0 23.5 L480.0 32.5 L515.0 44.0 L519.5 49.0 L520.0 57.0 L518.0 61.0 L514.0 64.5 L508.0 66.0 L438.0 46.5 L402.0 39.5 L351.0 33.5 L314.0 32.0 L272.0 32.5 L209.0 39.5 L173.0 46.5 L141.0 54.5 L107.0 65.5 L99.0 65.5 L95.0 63.0 L91.5 58.0 L90.5 54.0 L91.5 50.0 L97.0 43.5 L111.0 38.5 L170.0 22.5 L201.0 16.5 L236.0 11.5 L269.0 9.0Z"></path>
</svg>